# xmcd
#
# Track frame offsets:
#	150
#	17527
#	34453
#	50483
#	67294
#	84062
#	103764
#	116840
#	130474
#	146749
#	164126
#	181052
#	197082
#	213893
#	230661
#	250363
#	263439
#	277073
#
# Disc length: 3911 seconds
# Revision: 0
# Processed by: cddbd v1.5.2PL0 Copyright (c) Steve Scherf et al.
# Submitted via: dBpowerAMP V12.0
#
DISCID=130f4512
DTITLE=Various Artist - PH1204-C
DYEAR=2012
DGENRE=Karaoke
TTITLE0=Alan Jackson - So You Don't Have To Love Me Anymore
TTITLE1=Kelly Pickler - Mothers Day
TTITLE2=Tim McGraw - One Part Two Part
TTITLE3=Corey Smith - Maybe Next Year
TTITLE4=Miranda Lambert - Nobody's Fool
TTITLE5=Zac Brown Band - I Play The Road
TTITLE6=Tim Dugger - Way Past My Beer Time
TTITLE7=Kelly Pickler - Rockaway (The Rockin' Chair Son)
TTITLE8=The Little Willies - For The Good Times
TTITLE9=Alan Jackson - So You Don't Have To Love Me AnyMore (Vocals)
TTITLE10=Kelly Pickler - Mother's Day (Vocals)
TTITLE11=Tim McGraw - One Part Two Part (Vocals)
TTITLE12=Corey Smith - Maybe Next Year (Vocals)
TTITLE13=Miranda Lambert - Nobody's Fool (Vocals)
TTITLE14=Zac Brown Band - I Play The Road (Vocals)
TTITLE15=Tim Dugger - Way Past My Beer Time (vocals)
TTITLE16=Kelly Pickler - Rockaway (The Rockin' Chair Song) (Vocals)
TTITLE17=The Little Willies - For The Good Times (Vocals)
EXTD=
EXTT0=
EXTT1=
EXTT2=
EXTT3=
EXTT4=
EXTT5=
EXTT6=
EXTT7=
EXTT8=
EXTT9=
EXTT10=
EXTT11=
EXTT12=
EXTT13=
EXTT14=
EXTT15=
EXTT16=
EXTT17=
PLAYORDER=
